<svg xmlns="http://www.w3.org/2000/svg" xmlns:xlink="http://www.w3.org/1999/xlink" preserveAspectRatio="xMidYMid meet" version="1.1" viewBox="98.6 137.5 236.4 158.5" zoomAndPan="magnify" style="fill: rgb(0, 0, 0);" original_string_length="864" width="33.074826580849766px" height="22.25033788166257px">
 <g id="__id0_sbs97mid7e">
  <path d="m249.6 249.31c-14.25-7.13-20.03-24.46-12.9-38.71s24.46-20.03 38.71-12.9 20.03 24.46 12.9 38.71-24.45 20.03-38.71 12.9zm41.19-82.83c-25.93-12.97-56.47-6.58-75.2 13.68l-62.33-31.16-20.54-10.27c-2.41-1.21-5.18-0.56-6.18 1.45l-10.57 21.12-16.388 32.78c-1.004 2.01 0.137 4.61 2.548 5.82l20.54 10.27c2.41 1.21 5.18 0.56 6.19-1.45l14.2-28.41 10.59 5.3-8.79 17.6c-0.77 1.54 0.55 3.77 2.97 4.98l20.53 10.26c2.41 1.21 5 0.94 5.77-0.6l8.8-17.6 17.39 8.69c-6.57 28.05 6.63 57.96 33.52 71.41 31.45 15.72 69.69 2.97 85.41-28.47 15.73-31.44 2.98-69.68-28.46-85.4" style="fill: rgb(30, 141, 206);"/>
 </g>
</svg>