<svg xmlns="http://www.w3.org/2000/svg" xmlns:xlink="http://www.w3.org/1999/xlink" preserveAspectRatio="xMidYMid meet" version="1.0" viewBox="0.0 -4.5 680.1 575.0" zoomAndPan="magnify" style="fill: rgb(28, 154, 214);" original_string_length="1471" width="27.718757557042895px" height="23.438655287205393px"><g id="__id4_s23mwnjluw"><path d="M675.14,143.36c-0.92-16,4.95-33.89-5.68-47.81c-18.62-5.13-37.19-10.32-55.87-14.9c-0.98-23.14,0.85-46.35-0.85-69.43 c-2.69-15.75-21.86-10.26-32.98-10.38C483.4,5.66,394.61,60.19,337.94,136.82C276.99,53.78,177.09-3.44,72.48,0.83 c-2.08,1.77-6.29,5.31-8.43,7.08c-3.18,24-0.18,48.49-1.47,72.67C41.4,89.13,10.08,87.79,0,112.22c3.97,9.65,4.89,20.09,4.46,30.47 C3.54,265.18,5.31,387.62,3.6,510.06c-1.59,9.22,0.12,25.53,13.37,22.66c42.81-15.57,88.91-21.19,134.34-18.56 c61.74,4.82,125.86,19.3,176.6,56.3c4.95,0,14.78,0,19.66,0.06c28.09-21.56,62.16-33.28,95.81-42.99 c72.12-20.21,149.98-18.32,220.87,5.92c15.14-2.56,11.05-19.17,11.18-30.17C674.78,383.35,675.33,263.35,675.14,143.36z M30.23,499.55c0.37-126.47-0.06-253,0.18-379.46c10.81-3.85,21.68-7.69,32.55-11.48c-0.24,101-0.18,202.01-0.06,303.01 c-1.4,18.38,21.56,15.14,33.53,16.3c71.45,2.99,136.48,39.33,188.39,86.53C204.69,482.09,113.46,474.76,30.23,499.55z M379.03,520.93c39.63-38.78,85.31-73.58,139.6-88.55c27.97-9.47,57.58-10.38,86.65-13.13c9.4-1.16,7.45-12.88,8.12-19.48 c-0.06-96.61-0.12-193.21-0.06-289.82c11.66,3.54,23.33,7.08,35.05,10.5c1.65,126.47,0.06,253,0.79,379.46 C560.34,475.31,463.31,484.1,379.03,520.93z" style="fill: inherit;"/></g></svg>